<svg width="22pt" height="22pt" viewBox="0 0 128 128">
    <g fill-rule="evenodd">
    <path
       d="M 13.6875,0.21875 1.96875,7 l 0,13.53125 11.71875,6.78125 11.75,-6.78125 0,-13.53125 -11.75,-6.78125 z m -0.21875,2.9375 -0.21875,0.3125 -0.1875,0.21875 0.1875,0.25 0.15625,0.25 C 8.2238491,4.3516565 4.0625,8.5897663 4.0625,13.8125 c 0,1.53048 0.3643003,2.966927 1,4.25 l -0.25,0.53125 -0.625,-0.0625 C 3.4739437,17.106473 3.0625,15.512243 3.0625,13.8125 3.0625,8.028588 7.716283,3.2895221 13.46875,3.15625 z M 14.4375,3.1875 c 5.534617,0.369785 9.90625,4.9983374 9.90625,10.625 0,1.833581 -0.463357,3.557017 -1.28125,5.0625 l -0.125,-0.25 -0.125,-0.28125 -0.28125,0.03125 -0.34375,0.03125 c 0.739688,-1.363949 1.15625,-2.929057 1.15625,-4.59375 0,-5.0803341 -3.922604,-9.2511654 -8.90625,-9.625 l -0.375,-0.5 0.375,-0.5 z M 10.25,7.5 c 1.425042,0 2.639576,0.7576324 3.8125,1.40625 1.172923,0.6486176 2.283798,1.21875 3.09375,1.21875 C 19.100721,10.125 20,9.09375 20,9.09375 L 21.25,10.25 c 0,0 -1.500142,1.5625 -4.09375,1.5625 -1.459089,0 -2.728987,-0.755233 -3.90625,-1.40625 -1.177263,-0.6510172 -2.253123,-1.1875 -3,-1.1875 -1.8328368,0 -2.875,1.03125 -2.875,1.03125 L 6.1875,9.0625 c 0,0 1.5514984,-1.5625 4.0625,-1.5625 z m 0.0625,4.6875 c 1.28542,0 2.513683,0.725888 3.6875,1.375 1.173817,0.649112 2.306403,1.21875 3.25,1.21875 2.078117,0 3.09375,-1.125 3.09375,-1.125 l 0.71875,0.65625 c 0,0 -1.352537,1.46875 -3.8125,1.46875 -1.325443,0 -2.573631,-0.724477 -3.75,-1.375 -1.176369,-0.650523 -2.301,-1.21875 -3.1875,-1.21875 -1.9724586,0 -3.09375,1.15625 -3.09375,1.15625 L 6.5,13.625 c 0,0 1.4411209,-1.4375 3.8125,-1.4375 z m 0,3.84375 c 1.28542,0 2.482432,0.694638 3.65625,1.34375 1.173817,0.649112 2.306403,1.25 3.25,1.25 2.078118,0 3.09375,-1.15625 3.09375,-1.15625 l 0.75,0.6875 c 0,0 -1.383787,1.46875 -3.84375,1.46875 -1.325443,0 -2.54238,-0.724477 -3.71875,-1.375 -1.176369,-0.650523 -2.301001,-1.21875 -3.1875,-1.21875 -1.9724586,0 -3.125,1.125 -3.125,1.125 L 6.5,17.46875 c 0,0 1.4411209,-1.4375 3.8125,-1.4375 z M 5.53125,18.875 c 1.7052086,2.730869 4.727356,4.5625 8.1875,4.5625 3.288587,0 6.171115,-1.649342 7.90625,-4.15625 l 0.6875,-0.09375 0.25,0.53125 c -1.906345,2.846287 -5.161209,4.71875 -8.84375,4.71875 -3.8226661,0 -7.1815039,-2.032459 -9.0625,-5.0625 L 5,19.40625 5.3125,19.4375 5.40625,19.15625 5.53125,18.875 z"
       transform="scale(4.6545455,4.6545455)"
       id="path4245"
       style="fill-opacity:1;fill-rule:nonzero;stroke:none;stroke-width:0.80000001;marker:none;visibility:visible;display:inline;overflow:visible;enable-background:accumulate" />
    </g>
</svg>